<mxfile host="app.diagrams.net" agent="Mozilla/5.0 (Windows NT 10.0; Win64; x64) AppleWebKit/537.36 (KHTML, like Gecko) Chrome/140.0.0.0 Safari/537.36" version="28.2.5">
  <diagram name="หน้า-1" id="g1WY-LeKKJIpPG-kmTFl">
    <mxGraphModel dx="2780" dy="-118" grid="1" gridSize="10" guides="1" tooltips="1" connect="1" arrows="1" fold="1" page="1" pageScale="1" pageWidth="1169" pageHeight="1654" math="0" shadow="0">
      <root>
        <mxCell id="0" />
        <mxCell id="1" parent="0" />
        <mxCell id="CkeSAW8G-GJdKuXeejbD-107" value="เริ่มโปรแกรม" style="ellipse;whiteSpace=wrap;html=1;aspect=fixed;" vertex="1" parent="1">
          <mxGeometry x="525" y="1681" width="120" height="60" as="geometry" />
        </mxCell>
        <mxCell id="CkeSAW8G-GJdKuXeejbD-108" value="" style="endArrow=classic;html=1;rounded=0;" edge="1" parent="1" source="CkeSAW8G-GJdKuXeejbD-107" target="CkeSAW8G-GJdKuXeejbD-109">
          <mxGeometry width="50" height="50" relative="1" as="geometry">
            <mxPoint x="585" y="1741" as="sourcePoint" />
            <mxPoint x="585" y="1791" as="targetPoint" />
          </mxGeometry>
        </mxCell>
        <mxCell id="CkeSAW8G-GJdKuXeejbD-109" value="ประกาศตัวแปร id[11], hours, rate, salary" style="rounded=0;whiteSpace=wrap;html=1;" vertex="1" parent="1">
          <mxGeometry x="500" y="1791" width="170" height="60" as="geometry" />
        </mxCell>
        <mxCell id="CkeSAW8G-GJdKuXeejbD-110" value="" style="endArrow=classic;html=1;rounded=0;" edge="1" parent="1" source="CkeSAW8G-GJdKuXeejbD-109" target="CkeSAW8G-GJdKuXeejbD-111">
          <mxGeometry width="50" height="50" relative="1" as="geometry">
            <mxPoint x="585" y="1851" as="sourcePoint" />
            <mxPoint x="585" y="1901" as="targetPoint" />
          </mxGeometry>
        </mxCell>
        <mxCell id="CkeSAW8G-GJdKuXeejbD-111" value="แสดง &quot;Input the Employees ID(Max. 10 chars): &quot;" style="shape=parallelogram;perimeter=parallelogramPerimeter;whiteSpace=wrap;html=1;fixedSize=1;" vertex="1" parent="1">
          <mxGeometry x="500" y="1901" width="170" height="60" as="geometry" />
        </mxCell>
        <mxCell id="CkeSAW8G-GJdKuXeejbD-112" value="" style="endArrow=classic;html=1;rounded=0;" edge="1" parent="1" source="CkeSAW8G-GJdKuXeejbD-111" target="CkeSAW8G-GJdKuXeejbD-113">
          <mxGeometry width="50" height="50" relative="1" as="geometry">
            <mxPoint x="585" y="1961" as="sourcePoint" />
            <mxPoint x="585" y="2011" as="targetPoint" />
          </mxGeometry>
        </mxCell>
        <mxCell id="CkeSAW8G-GJdKuXeejbD-113" value="รับค่า id ด้วย scanf" style="shape=parallelogram;perimeter=parallelogramPerimeter;whiteSpace=wrap;html=1;fixedSize=1;" vertex="1" parent="1">
          <mxGeometry x="500" y="2011" width="170" height="60" as="geometry" />
        </mxCell>
        <mxCell id="CkeSAW8G-GJdKuXeejbD-114" value="" style="endArrow=classic;html=1;rounded=0;" edge="1" parent="1" source="CkeSAW8G-GJdKuXeejbD-113" target="CkeSAW8G-GJdKuXeejbD-115">
          <mxGeometry width="50" height="50" relative="1" as="geometry">
            <mxPoint x="585" y="2071" as="sourcePoint" />
            <mxPoint x="585" y="2121" as="targetPoint" />
          </mxGeometry>
        </mxCell>
        <mxCell id="CkeSAW8G-GJdKuXeejbD-115" value="แสดง &quot;Input the working hrs: &quot;" style="shape=parallelogram;perimeter=parallelogramPerimeter;whiteSpace=wrap;html=1;fixedSize=1;" vertex="1" parent="1">
          <mxGeometry x="500" y="2121" width="170" height="60" as="geometry" />
        </mxCell>
        <mxCell id="CkeSAW8G-GJdKuXeejbD-116" value="" style="endArrow=classic;html=1;rounded=0;" edge="1" parent="1" source="CkeSAW8G-GJdKuXeejbD-115" target="CkeSAW8G-GJdKuXeejbD-117">
          <mxGeometry width="50" height="50" relative="1" as="geometry">
            <mxPoint x="585" y="2181" as="sourcePoint" />
            <mxPoint x="585" y="2231" as="targetPoint" />
          </mxGeometry>
        </mxCell>
        <mxCell id="CkeSAW8G-GJdKuXeejbD-117" value="รับค่า hours ด้วย scanf" style="shape=parallelogram;perimeter=parallelogramPerimeter;whiteSpace=wrap;html=1;fixedSize=1;" vertex="1" parent="1">
          <mxGeometry x="500" y="2231" width="170" height="60" as="geometry" />
        </mxCell>
        <mxCell id="CkeSAW8G-GJdKuXeejbD-118" value="" style="endArrow=classic;html=1;rounded=0;" edge="1" parent="1" source="CkeSAW8G-GJdKuXeejbD-117" target="CkeSAW8G-GJdKuXeejbD-119">
          <mxGeometry width="50" height="50" relative="1" as="geometry">
            <mxPoint x="585" y="2291" as="sourcePoint" />
            <mxPoint x="585" y="2341" as="targetPoint" />
          </mxGeometry>
        </mxCell>
        <mxCell id="CkeSAW8G-GJdKuXeejbD-119" value="แสดง &quot;Salary amount/hr: &quot;" style="shape=parallelogram;perimeter=parallelogramPerimeter;whiteSpace=wrap;html=1;fixedSize=1;" vertex="1" parent="1">
          <mxGeometry x="500" y="2341" width="170" height="60" as="geometry" />
        </mxCell>
        <mxCell id="CkeSAW8G-GJdKuXeejbD-120" value="" style="endArrow=classic;html=1;rounded=0;" edge="1" parent="1" source="CkeSAW8G-GJdKuXeejbD-119" target="CkeSAW8G-GJdKuXeejbD-121">
          <mxGeometry width="50" height="50" relative="1" as="geometry">
            <mxPoint x="585" y="2401" as="sourcePoint" />
            <mxPoint x="585" y="2451" as="targetPoint" />
          </mxGeometry>
        </mxCell>
        <mxCell id="CkeSAW8G-GJdKuXeejbD-121" value="รับค่า rate ด้วย scanf" style="shape=parallelogram;perimeter=parallelogramPerimeter;whiteSpace=wrap;html=1;fixedSize=1;" vertex="1" parent="1">
          <mxGeometry x="500" y="2451" width="170" height="60" as="geometry" />
        </mxCell>
        <mxCell id="CkeSAW8G-GJdKuXeejbD-122" value="" style="endArrow=classic;html=1;rounded=0;" edge="1" parent="1" source="CkeSAW8G-GJdKuXeejbD-121" target="CkeSAW8G-GJdKuXeejbD-123">
          <mxGeometry width="50" height="50" relative="1" as="geometry">
            <mxPoint x="585" y="2511" as="sourcePoint" />
            <mxPoint x="585" y="2561" as="targetPoint" />
          </mxGeometry>
        </mxCell>
        <mxCell id="CkeSAW8G-GJdKuXeejbD-123" value="คำนวณ salary = hours × rate" style="rounded=0;whiteSpace=wrap;html=1;" vertex="1" parent="1">
          <mxGeometry x="500" y="2561" width="170" height="60" as="geometry" />
        </mxCell>
        <mxCell id="CkeSAW8G-GJdKuXeejbD-124" value="" style="endArrow=classic;html=1;rounded=0;" edge="1" parent="1" source="CkeSAW8G-GJdKuXeejbD-123" target="CkeSAW8G-GJdKuXeejbD-125">
          <mxGeometry width="50" height="50" relative="1" as="geometry">
            <mxPoint x="585" y="2621" as="sourcePoint" />
            <mxPoint x="585" y="2671" as="targetPoint" />
          </mxGeometry>
        </mxCell>
        <mxCell id="CkeSAW8G-GJdKuXeejbD-125" value="แสดง &quot;----&quot;" style="shape=parallelogram;perimeter=parallelogramPerimeter;whiteSpace=wrap;html=1;fixedSize=1;" vertex="1" parent="1">
          <mxGeometry x="500" y="2671" width="170" height="60" as="geometry" />
        </mxCell>
        <mxCell id="CkeSAW8G-GJdKuXeejbD-126" value="" style="endArrow=classic;html=1;rounded=0;" edge="1" parent="1" source="CkeSAW8G-GJdKuXeejbD-125" target="CkeSAW8G-GJdKuXeejbD-127">
          <mxGeometry width="50" height="50" relative="1" as="geometry">
            <mxPoint x="585" y="2731" as="sourcePoint" />
            <mxPoint x="585" y="2781" as="targetPoint" />
          </mxGeometry>
        </mxCell>
        <mxCell id="CkeSAW8G-GJdKuXeejbD-127" value="แสดง &quot;Expected Output:&quot;" style="shape=parallelogram;perimeter=parallelogramPerimeter;whiteSpace=wrap;html=1;fixedSize=1;" vertex="1" parent="1">
          <mxGeometry x="500" y="2781" width="170" height="60" as="geometry" />
        </mxCell>
        <mxCell id="CkeSAW8G-GJdKuXeejbD-128" value="" style="endArrow=classic;html=1;rounded=0;" edge="1" parent="1" source="CkeSAW8G-GJdKuXeejbD-127" target="CkeSAW8G-GJdKuXeejbD-129">
          <mxGeometry width="50" height="50" relative="1" as="geometry">
            <mxPoint x="585" y="2841" as="sourcePoint" />
            <mxPoint x="585" y="2891" as="targetPoint" />
          </mxGeometry>
        </mxCell>
        <mxCell id="CkeSAW8G-GJdKuXeejbD-129" value="แสดง &quot;Employees ID = &quot; และ id" style="shape=parallelogram;perimeter=parallelogramPerimeter;whiteSpace=wrap;html=1;fixedSize=1;" vertex="1" parent="1">
          <mxGeometry x="500" y="2891" width="170" height="60" as="geometry" />
        </mxCell>
        <mxCell id="CkeSAW8G-GJdKuXeejbD-130" value="" style="endArrow=classic;html=1;rounded=0;" edge="1" parent="1" source="CkeSAW8G-GJdKuXeejbD-129" target="CkeSAW8G-GJdKuXeejbD-131">
          <mxGeometry width="50" height="50" relative="1" as="geometry">
            <mxPoint x="585" y="2951" as="sourcePoint" />
            <mxPoint x="585" y="3001" as="targetPoint" />
          </mxGeometry>
        </mxCell>
        <mxCell id="CkeSAW8G-GJdKuXeejbD-131" value="แสดง &quot;Salary = U$ &quot; และ salary" style="shape=parallelogram;perimeter=parallelogramPerimeter;whiteSpace=wrap;html=1;fixedSize=1;" vertex="1" parent="1">
          <mxGeometry x="500" y="3001" width="170" height="60" as="geometry" />
        </mxCell>
        <mxCell id="CkeSAW8G-GJdKuXeejbD-132" value="" style="endArrow=classic;html=1;rounded=0;" edge="1" parent="1" source="CkeSAW8G-GJdKuXeejbD-131" target="CkeSAW8G-GJdKuXeejbD-133">
          <mxGeometry width="50" height="50" relative="1" as="geometry">
            <mxPoint x="585" y="3061" as="sourcePoint" />
            <mxPoint x="585" y="3111" as="targetPoint" />
          </mxGeometry>
        </mxCell>
        <mxCell id="CkeSAW8G-GJdKuXeejbD-133" value="return 0" style="rounded=0;whiteSpace=wrap;html=1;" vertex="1" parent="1">
          <mxGeometry x="500" y="3111" width="170" height="60" as="geometry" />
        </mxCell>
        <mxCell id="CkeSAW8G-GJdKuXeejbD-134" value="" style="endArrow=classic;html=1;rounded=0;" edge="1" parent="1" source="CkeSAW8G-GJdKuXeejbD-133" target="CkeSAW8G-GJdKuXeejbD-135">
          <mxGeometry width="50" height="50" relative="1" as="geometry">
            <mxPoint x="585" y="3171" as="sourcePoint" />
            <mxPoint x="585" y="3221" as="targetPoint" />
          </mxGeometry>
        </mxCell>
        <mxCell id="CkeSAW8G-GJdKuXeejbD-135" value="จบโปรแกรม" style="ellipse;whiteSpace=wrap;html=1;aspect=fixed;" vertex="1" parent="1">
          <mxGeometry x="525" y="3221" width="120" height="60" as="geometry" />
        </mxCell>
      </root>
    </mxGraphModel>
  </diagram>
</mxfile>
